# xmcd
#
# Track frame offsets:
#	150
#	17172
#	51980
#	67007
#	101957
#	121767
#	138277
#	161392
#
# Disc length: 2628 seconds
#
# Revision: 0
# Processed by: cddbd v1.5.2PL0 Copyright (c) Steve Scherf et al.
# Submitted via: EasyCDDAExtractor 10.2.0.1
#
DISCID=6b0a4208
DTITLE=Natalie Cole - Natalie Live [CD1]
DYEAR=1996
DGENRE=Soul
TTITLE0=Sophisticated Lady
TTITLE1=Que Sera, Sera
TTITLE2=Lovers
TTITLE3=I'm Catching Hell (Living Here Alone)
TTITLE4=Mr Melody
TTITLE5=This Will Be (An Everlasting Love)
TTITLE6=Party Lights
TTITLE7=I've Got Love On My Mind
EXTD=
EXTT0=
EXTT1=
EXTT2=
EXTT3=
EXTT4=
EXTT5=
EXTT6=
EXTT7=
PLAYORDER=
